<?xml version="1.0" encoding="UTF-8" standalone="no"?>
<!-- Created with Inkscape (http://www.inkscape.org/) -->

<svg
   xmlns:dc="http://purl.org/dc/elements/1.1/"
   xmlns:cc="http://creativecommons.org/ns#"
   xmlns:rdf="http://www.w3.org/1999/02/22-rdf-syntax-ns#"
   xmlns:svg="http://www.w3.org/2000/svg"
   xmlns="http://www.w3.org/2000/svg"
   xmlns:sodipodi="http://sodipodi.sourceforge.net/DTD/sodipodi-0.dtd"
   xmlns:inkscape="http://www.inkscape.org/namespaces/inkscape"
   width="210mm"
   height="297mm"
   viewBox="0 0 210 297"
   version="1.1"
   id="svg8"
   inkscape:version="0.92.3 (2405546, 2018-03-11)"
   sodipodi:docname="icons.svg">
  <defs
     id="defs2" />
  <sodipodi:namedview
     id="base"
     pagecolor="#ffffff"
     bordercolor="#666666"
     borderopacity="1.0"
     inkscape:pageopacity="0.0"
     inkscape:pageshadow="2"
     inkscape:zoom="5.6"
     inkscape:cx="-900.2779"
     inkscape:cy="665.64234"
     inkscape:document-units="mm"
     inkscape:current-layer="g877"
     showgrid="false"
     inkscape:window-width="1861"
     inkscape:window-height="1025"
     inkscape:window-x="59"
     inkscape:window-y="27"
     inkscape:window-maximized="1" />
  <metadata
     id="metadata5">
    <rdf:RDF>
      <cc:Work
         rdf:about="">
        <dc:format>image/svg+xml</dc:format>
        <dc:type
           rdf:resource="http://purl.org/dc/dcmitype/StillImage" />
        <dc:title></dc:title>
      </cc:Work>
    </rdf:RDF>
  </metadata>
  <g
     inkscape:label="Layer 1"
     inkscape:groupmode="layer"
     id="layer1">
    <g
       id="g29"
       transform="matrix(0.26458333,0,0,0.26458333,-205.14152,89.736418)">
      <path
         id="path12"
         d="m 46.16,19.35 a 6.69,6.69 0 0 0 0,-9.45 2.503158,2.503158 0 0 1 3.54,-3.54 11.7,11.7 0 0 1 0,16.52 6.69,6.69 0 0 0 0,9.45 2.503158,2.503158 0 1 1 -3.54,3.54 11.7,11.7 0 0 1 0,-16.52 z m 15,3.73 a 9.06,9.06 0 0 0 0,12.8 2.503158,2.503158 0 1 0 3.54,-3.54 4.06,4.06 0 0 1 0,-5.73 v 0 a 9.05,9.05 0 0 0 0,-12.8 2.503158,2.503158 0 0 0 -3.54,3.54 4.05,4.05 0 0 1 0,5.73 z m -30,12.8 a 2.503158,2.503158 0 1 0 3.54,-3.54 4.06,4.06 0 0 1 0,-5.73 v 0 a 9.06,9.06 0 0 0 0,-12.8 2.503158,2.503158 0 1 0 -3.54,3.54 4.06,4.06 0 0 1 0,5.73 v 0 a 9.06,9.06 0 0 0 0,12.79 z m -24.64,56 A 2.5,2.5 0 0 1 9,89.37 H 26.47 A 28,28 0 0 1 15.14,74.77 Q 14.9,74.04 14.68,73.29 a 116.15,116.15 0 0 1 -4.17,-24.09 6.85,6.85 0 0 1 1.85,-5.08 6.92,6.92 0 0 1 5,-2.16 H 73.6 a 6.92,6.92 0 0 1 5,2.16 6.84,6.84 0 0 1 1.85,5.08 c -0.1,1.72 -0.26,3.49 -0.47,5.28 h 1.48 a 12,12 0 0 1 11.65,14.89 12,12 0 0 1 -11.63,9.09 h -7.24 a 28.76,28.76 0 0 1 -9.89,10.91 h 17.11 a 2.5,2.5 0 1 1 0,5 H 9 A 2.5,2.5 0 0 1 6.52,91.87 Z M 76.24,73.46 h 5.23 a 7,7 0 0 0 6.78,-5.3 7,7 0 0 0 -6.78,-8.68 h -2.16 a 119,119 0 0 1 -3,13.82 z M 42.6,89.16 h 5.75 a 24,24 0 0 0 23.07,-17 l 0.07,-0.23 a 111,111 0 0 0 4,-23 1.8,1.8 0 0 0 -0.5,-1.35 A 1.87,1.87 0 0 0 73.6,47 H 17.38 a 1.87,1.87 0 0 0 -1.38,0.59 1.8,1.8 0 0 0 -0.5,1.35 111,111 0 0 0 4,23 c 0.12,0.43 0.25,0.85 0.39,1.26 A 23.71,23.71 0 0 0 42.6,89.16 Z"
         inkscape:connector-curvature="0"
         inkscape:export-xdpi="107.56"
         inkscape:export-ydpi="107.56" />
      <path
         style="fill:#ffea74;fill-opacity:1;stroke:none;stroke-width:3.81789947;stroke-miterlimit:4;stroke-dasharray:none;stroke-opacity:1"
         d="m -738.92291,427.29588 c -6.50121,-1.81219 -12.36212,-6.62108 -15.0633,-12.35948 -1.92166,-4.08238 -3.8977,-12.36958 -4.98878,-20.92217 -0.79803,-6.25551 -0.79456,-6.5554 0.0833,-7.19733 1.3634,-0.99694 56.66818,-0.98448 58.03243,0.0131 0.87325,0.63854 0.89546,1.02146 0.34165,5.8917 -1.91876,16.87398 -5.21405,25.17488 -12.05701,30.3719 -5.03634,3.82494 -7.71397,4.61374 -16.29965,4.80164 -5.38837,0.11792 -8.0437,-0.0405 -10.04868,-0.59933 z"
         id="path843"
         inkscape:connector-curvature="0"
         transform="translate(775.33804,-339.16127)"
         inkscape:export-xdpi="107.56"
         inkscape:export-ydpi="107.56" />
      <g
         id="g877"
         transform="translate(-179.71167,51.864267)">
        <g
           id="g855"
           inkscape:export-xdpi="107.56"
           inkscape:export-ydpi="107.56">
          <path
             id="path845"
             d="M 69.4,24.9 H 55.5 C 54.1,24.9 53,26 53,27.4 v 5.8 C 50.3,34 47.7,35 45.3,36.4 l -4.1,-4.1 c -0.9,-0.9 -2.6,-0.9 -3.5,0 l -9.8,9.8 c -1,1 -1,2.6 0,3.5 l 4.1,4.1 c -1.4,2.4 -2.4,5 -3.2,7.7 H 23 c -1.4,0 -2.5,1.1 -2.5,2.5 v 13.9 c 0,1.4 1.1,2.5 2.5,2.5 h 5.8 c 0.8,2.7 1.8,5.3 3.2,7.7 l -4.1,4.1 c -1,1 -1,2.6 0,3.5 l 9.8,9.8 c 1,1 2.6,1 3.5,0 l 4.1,-4.1 c 2.4,1.4 5,2.4 7.7,3.2 v 5.8 c 0,1.4 1.1,2.5 2.5,2.5 h 13.9 c 1.4,0 2.5,-1.1 2.5,-2.5 v -5.8 c 2.7,-0.8 5.3,-1.8 7.7,-3.2 l 4.1,4.1 c 1,1 2.6,1 3.5,0 L 97,91.6 c 1,-1 1,-2.6 0,-3.5 L 92.9,84 c 1.4,-2.4 2.4,-5 3.2,-7.7 h 5.8 c 1.4,0 2.5,-1.1 2.5,-2.5 V 60 c 0,-1.4 -1.1,-2.5 -2.5,-2.5 H 96.1 C 95.3,54.8 94.3,52.2 92.9,49.8 L 97,45.7 c 1,-1 1,-2.6 0,-3.5 l -9.8,-9.8 c -0.5,-0.5 -1.1,-0.7 -1.8,-0.7 0,0 0,0 0,0 -0.7,0 -1.3,0.3 -1.8,0.7 l -4.1,4.2 c -2.4,-1.4 -5,-2.4 -7.7,-3.2 v -5.9 c 0.1,-1.4 -1,-2.6 -2.4,-2.6 z m 9.2,16.8 c 1,0.6 2.3,0.5 3.1,-0.3 l 3.7,-3.8 6.3,6.3 -3.7,3.7 c -0.8,0.8 -1,2.1 -0.3,3.1 1.9,3 3.3,6.3 4,9.8 0.3,1.1 1.3,2 2.4,2 h 5.2 v 8.9 h -5.2 c -1.2,0 -2.2,0.8 -2.4,2 -0.7,3.5 -2.1,6.8 -4,9.8 -0.6,1 -0.5,2.3 0.3,3.1 l 3.7,3.7 -6.3,6.3 -3.7,-3.7 c -0.8,-0.8 -2.1,-1 -3.1,-0.3 -3,1.9 -6.3,3.3 -9.8,4 -1.1,0.3 -2,1.3 -2,2.4 v 5.2 H 58 v -5.2 c 0,-1.2 -0.8,-2.2 -2,-2.4 -3.5,-0.7 -6.8,-2.1 -9.8,-4 -1,-0.6 -2.3,-0.5 -3.1,0.3 l -3.7,3.7 -6.3,-6.3 3.7,-3.7 c 0.8,-0.8 1,-2.1 0.3,-3.1 -1.9,-3 -3.3,-6.3 -4,-9.8 -0.3,-1.1 -1.3,-2 -2.4,-2 h -5.2 v -8.9 h 5.2 c 1.2,0 2.2,-0.8 2.4,-2 0.7,-3.5 2.1,-6.8 4,-9.8 0.6,-1 0.5,-2.3 -0.3,-3.1 l -3.7,-3.7 6.3,-6.3 3.7,3.7 c 0.8,0.8 2.1,1 3.1,0.3 3,-1.9 6.3,-3.3 9.8,-4 1.1,-0.3 2,-1.3 2,-2.4 V 30 h 8.9 v 5.3 c 0,1.2 0.8,2.2 2,2.4 3.5,0.7 6.7,2.1 9.7,4 z"
             inkscape:connector-curvature="0" />
          <path
             id="path847"
             d="m 39.2,66.9 c 0,12.8 10.4,23.2 23.2,23.2 12.8,0 23.2,-10.4 23.2,-23.2 0,-12.8 -10.4,-23.2 -23.2,-23.2 -12.8,0 -23.2,10.4 -23.2,23.2 z m 41.4,0 c 0,10 -8.2,18.2 -18.2,18.2 -10,0 -18.2,-8.1 -18.2,-18.2 0,-10.1 8.2,-18.2 18.2,-18.2 10,0 18.2,8.2 18.2,18.2 z"
             inkscape:connector-curvature="0" />
          <path
             id="path849"
             d="M 7,66.9 C 7,39.9 26.1,17.1 52.6,12.4 l -3,3 3.5,3.5 9,-9 -9.2,-9.2 -3.5,3.5 3.1,3.1 C 23.3,12.2 2,37.2 2,66.9 2,73 2.9,79 4.7,84.7 l 0.7,2.4 4.8,-1.5 -0.7,-2.4 C 7.8,78 7,72.5 7,66.9 Z"
             inkscape:connector-curvature="0" />
          <path
             id="path851"
             d="m 104.4,103.1 c -10.5,12.2 -25.8,19.2 -42,19.2 -16.3,0 -31.8,-7.2 -42.3,-19.7 l 5,1.1 1,-4.9 -12.4,-2.7 -2.7,12.8 4.9,1 0.8,-3.7 c 11.5,13.4 28.2,21.1 45.8,21.1 17.6,0 34.2,-7.6 45.7,-21 l 1.6,-1.9 -3.8,-3.3 z"
             inkscape:connector-curvature="0" />
          <path
             id="path853"
             d="m 124.1,84.9 -4.6,1.9 c 2.2,-6.4 3.4,-13.1 3.4,-19.9 0,-29.5 -21.1,-54.6 -50.1,-59.5 L 70.2,7 l -0.8,4.9 2.5,0.4 c 26.6,4.6 46,27.5 46,54.6 0,5.9 -0.9,11.7 -2.7,17.2 l -1.4,-3.3 -4.6,1.9 4.8,11.8 12.1,-4.9 z"
             inkscape:connector-curvature="0" />
        </g>
        <path
           style="fill:#cc0033;fill-opacity:1;stroke:none;stroke-width:3.81789947;stroke-miterlimit:4;stroke-dasharray:none;stroke-opacity:1"
           d=""
           id="path881"
           inkscape:connector-curvature="0"
           transform="translate(955.04971,-391.02554)" />
        <path
           style="fill:#cc0033;fill-opacity:1;stroke:none;stroke-width:3.81789947;stroke-miterlimit:4;stroke-dasharray:none;stroke-opacity:1"
           d=""
           id="path883"
           inkscape:connector-curvature="0"
           transform="translate(955.04971,-391.02554)" />
        <path
           style="fill:#cc0033;fill-opacity:1;stroke:none;stroke-width:0.47723743;stroke-miterlimit:4;stroke-dasharray:none;stroke-opacity:1"
           d=""
           id="path891"
           inkscape:connector-curvature="0"
           transform="translate(955.04971,-391.02554)" />
        <path
           style="fill:#cc0033;fill-opacity:1;stroke:none;stroke-width:0.47723743;stroke-miterlimit:4;stroke-dasharray:none;stroke-opacity:1"
           d=""
           id="path893"
           inkscape:connector-curvature="0"
           transform="translate(955.04971,-391.02554)" />
        <path
           style="fill:#cc0033;fill-opacity:1;stroke:none;stroke-width:0.47723743;stroke-miterlimit:4;stroke-dasharray:none;stroke-opacity:1"
           d=""
           id="path897"
           inkscape:connector-curvature="0"
           transform="translate(955.04971,-391.02554)" />
        <path
           style="fill:#cc0033;fill-opacity:1;stroke:none;stroke-width:0.47723743;stroke-miterlimit:4;stroke-dasharray:none;stroke-opacity:1"
           d=""
           id="path899"
           inkscape:connector-curvature="0"
           transform="translate(955.04971,-391.02554)" />
        <path
           style="fill:#cc0033;fill-opacity:1;stroke:none;stroke-width:0.47723743;stroke-miterlimit:4;stroke-dasharray:none;stroke-opacity:1"
           d=""
           id="path903"
           inkscape:connector-curvature="0"
           transform="translate(955.04971,-391.02554)" />
        <path
           style="fill:#cc0033;fill-opacity:1;stroke:none;stroke-width:0.47723743;stroke-miterlimit:4;stroke-dasharray:none;stroke-opacity:1"
           d=""
           id="path905"
           inkscape:connector-curvature="0"
           transform="translate(955.04971,-391.02554)" />
        <path
           style="fill:#cc0033;fill-opacity:1;stroke:none;stroke-width:0.47723743;stroke-miterlimit:4;stroke-dasharray:none;stroke-opacity:1"
           d=""
           id="path909"
           inkscape:connector-curvature="0"
           transform="translate(955.04971,-391.02554)" />
        <path
           style="fill:#cc0033;fill-opacity:1;stroke:none;stroke-width:0.47723743;stroke-miterlimit:4;stroke-dasharray:none;stroke-opacity:1"
           d=""
           id="path917"
           inkscape:connector-curvature="0"
           transform="translate(955.04971,-391.02554)" />
        <path
           style="fill:#cc0033;fill-opacity:1;stroke:none;stroke-width:0.47723743;stroke-miterlimit:4;stroke-dasharray:none;stroke-opacity:1"
           d=""
           id="path919"
           inkscape:connector-curvature="0"
           transform="translate(955.04971,-391.02554)" />
        <path
           style="fill:#0095cc;fill-opacity:1;stroke:none;stroke-width:1.34983134;stroke-miterlimit:4;stroke-dasharray:none;stroke-opacity:1"
           d="m 59.81374,103.90856 -1.71873,-0.0691 -0.0796,-3.07416 c -0.10655,-4.11571 -0.0626,-4.03625 -2.5811,-4.66732 -2.49123,-0.62424 -4.83541,-1.50801 -7.38627,-2.78465 -1.13072,-0.56589 -2.38962,-1.1289 -2.79757,-1.25112 -0.67943,-0.20356 -0.79854,-0.18711 -1.41826,0.19589 -0.37209,0.22997 -1.51453,1.21405 -2.53874,2.18685 l -1.86222,1.76873 -3.13156,-3.13156 -3.13156,-3.13156 2.35181,-2.44687 c 1.29349,-1.34578 2.099262,-2.57863 2.099262,-2.73968 0,-0.16106 -0.0768,-0.85405 -0.479332,-1.53999 C 35.28554,80.0641 34.05774,77.16918 33.29999,74.17028 33.0448,73.16033 32.575116,72.389614 32.487746,72.226094 32.243556,71.769074 30.95766,71.35185 28.24231,71.35185 L 25.5,71.4 25.243781,67.0215 C 25.198081,64.6398 25.4653,62.54216 25.5,62.5 c 0.0347,-0.0422 1.67208,0.03219 3.43052,0.02519 1.75845,-0.007 2.925677,-0.309338 2.979677,-0.363358 0.054,-0.054 0.902683,-1.274772 1.500153,-3.021492 1.34605,-3.93518 2.29987,-6.18301 3.45644,-8.14564 0.49195,-0.83482 0.88438,-1.65517 0.87206,-1.82299 -0.0432,-0.5885 -1.554436,-1.975541 -3.060286,-3.384421 L 33.1,43.9 36.36083,40.80916 39.4,37.6 l 0.92465,0.90704 c 2.8489,2.70358 3.77575,3.51186 4.13465,3.60572 0.29004,0.0758 1.31557,-0.35894 3.65849,-1.55104 2.29489,-1.16767 4.03376,-1.90815 5.89307,-2.5095 1.54231,-0.49883 2.85232,-1.03376 3.15471,-1.2882 0.71876,-0.6048 0.88257,-1.3796 0.88372,-4.18003 l 9.9e-4,-2.42856 2.1229,-0.11997 c 1.1676,-0.066 3.13635,-0.0658 4.375,4.2e-4 l 2.2521,0.12039 v 2.6571 c 0,2.80961 0.14444,3.50166 0.86475,4.14338 0.20809,0.18537 1.56516,0.73201 3.01572,1.21475 1.31664,0.25953 3.95735,1.26738 5.51608,2.01645 4.14489,1.99188 4.63185,2.14504 7.51707,-0.77319 l 1.68606,-1.81479 1.27048,1.34287 c 0.70981,0.66722 2.13904,1.98457 3.1424,3.01642 L 91.7,43.9 89.63223,45.96287 c -2.54271,2.53668 -2.58608,2.77087 -2.19975,4.10434 0.16202,0.55923 1.08552,2.00699 1.67027,3.2718 0.58475,1.26482 1.45951,3.3264 1.88934,4.58129 1.46729,4.28373 1.2166,4.40716 5.80819,4.60793 L 99.3,62.50003 99.211,66.99275 v 4.35909 l -1.17713,2e-5 c -0.64741,1e-5 -2.28068,0.0529 -3.62949,0.11763 -2.26406,0.10858 -2.44576,0.14286 -2.36638,0.44643 0.0473,0.18085 0.0297,0.32881 -0.0392,0.32881 -0.0689,0 -0.26995,0.70313 -0.44688,1.5625 -0.4126,2.00419 -1.26492,4.29707 -2.80709,7.55156 -1.81669,3.83381 -1.71655,3.953511 1.26759,6.719441 l 1.60938,1.938119 -3.11025,3.10643 -3.11023,3.10643 -2.25946,-2.12617 c -1.24269,-1.16939 -2.710188,-1.994162 -2.952438,-2.141482 -0.49032,-0.29819 0.07865,-0.679888 -2.983802,1.068532 -1.99523,1.13912 -4.59583,2.27328 -7.03578,3.06839 -2.698,0.8792 -3.27353,1.40803 -3.46356,3.18251 -0.072,0.67227 -0.0915,1.97573 -0.0433,2.89659 l 0.0876,1.67429 h -1.28746 c -0.70811,0 -1.88218,0.0283 -2.60905,0.063 -0.72687,0.0346 -2.09501,0.0318 -3.04032,-0.006 z m 6.62945,-14.24365 c 8.14274,-1.09157 15.00932,-7.01175 17.75273,-15.30592 1.56804,-4.74066 1.59225,-10.14966 0.067,-14.97147 -2.515,-7.95087 -8.72813,-13.23865 -17.5519,-14.93781 -2.22969,-0.42936 -6.92814,-0.43193 -9.06606,-0.005 -7.85837,1.56942 -13.611633,6.591961 -16.530473,13.692771 -2.15397,5.24006 -2.556617,10.910079 -0.646497,16.249999 2.89946,8.10566 10.55707,14.40084 18.65374,15.33488 2.09953,0.2422 5.27163,0.21729 7.32143,-0.0575 z"
           id="path940"
           inkscape:connector-curvature="0"
           sodipodi:nodetypes="ccccccccccccscscscccsccccccccccccccccccsccccccscsccccccccccscsccccccsscccsccccscccscccc"
           inkscape:export-xdpi="107.56"
           inkscape:export-ydpi="107.56" />
        <path
           style="fill:#0095cc;fill-opacity:1;stroke:none;stroke-width:0.33745784;stroke-miterlimit:4;stroke-dasharray:none;stroke-opacity:1"
           d="m -863.16729,463.57601 c 0.0161,-0.0675 0.0708,-0.18027 0.12148,-0.25054 0.0687,-0.0951 0.0857,-0.16799 0.0666,-0.28529 -0.0441,-0.27201 0.0171,-0.32355 0.38439,-0.32355 h 0.3211 l -0.17758,0.14509 c -0.2564,0.20949 -0.45634,0.43033 -0.58605,0.64732 -0.13132,0.21969 -0.1713,0.24029 -0.12998,0.067 z"
           id="path942"
           inkscape:connector-curvature="0"
           transform="translate(955.04971,-391.02554)"
           inkscape:export-xdpi="107.56"
           inkscape:export-ydpi="107.56" />
        <path
           style="fill:#0095cc;fill-opacity:1;stroke:none;stroke-width:0.33745784;stroke-miterlimit:4;stroke-dasharray:none;stroke-opacity:1"
           d="m -864.38659,467.98449 c -8.9e-4,-0.0368 0.026,-0.12723 0.0597,-0.2009 0.0337,-0.0737 0.062,-0.10379 0.0629,-0.067 8.8e-4,0.0368 -0.026,0.12723 -0.0597,0.20089 -0.0337,0.0737 -0.062,0.1038 -0.0629,0.067 z"
           id="path944"
           inkscape:connector-curvature="0"
           transform="translate(955.04971,-391.02554)"
           inkscape:export-xdpi="107.56"
           inkscape:export-ydpi="107.56" />
      </g>
    </g>
  </g>
</svg>
